<svg aria-hidden="true" style="position: absolute; width: 0; height: 0; overflow: hidden;" version="1.1" xmlns="http://www.w3.org/2000/svg" xmlns:xlink="http://www.w3.org/1999/xlink">
<defs>
<symbol id="icon-arrow-bot" viewBox="0 0 32 32">
<path fill="none" stroke="#fafafa" style="stroke: var(--color1, #fafafa)" stroke-linejoin="miter" stroke-linecap="butt" stroke-miterlimit="4" stroke-width="3.2" d="M24 12l-8 8-8-8"></path>
</symbol>
<symbol id="icon-arrow-narrow-right" viewBox="0 0 32 32">
<path fill="none" stroke="#fafafa" style="stroke: var(--color1, #fafafa)" stroke-linejoin="round" stroke-linecap="round" stroke-miterlimit="4" stroke-width="2" d="M5.333 16h21.333"></path>
<path fill="none" stroke="#fafafa" style="stroke: var(--color1, #fafafa)" stroke-linejoin="round" stroke-linecap="round" stroke-miterlimit="4" stroke-width="2" d="M18.666 8l8 8-8 8"></path>
</symbol>
<symbol id="icon-art" viewBox="0 0 32 32">
<path fill="none" stroke="#fafafa" style="stroke: var(--color1, #fafafa)" stroke-linejoin="round" stroke-linecap="round" stroke-miterlimit="4" stroke-width="2.7826" d="M2.087 29.217c2.783 0 6.411 0.475 8.313-1.426s1.902-4.985 0-6.887c-1.902-1.902-4.985-1.902-6.887 0s0 5.53-1.426 8.313z"></path>
<path fill="none" stroke="#fafafa" style="stroke: var(--color1, #fafafa)" stroke-linejoin="round" stroke-linecap="round" stroke-miterlimit="4" stroke-width="2.7826" d="M10.435 20.869c-0.684-0.684-1.026-1.026-1.219-1.384-0.463-0.858-0.444-1.897 0.053-2.737 0.207-0.35 0.562-0.679 1.271-1.336l13.729-12.713c1.209-1.12 3.087-1.084 4.253 0.082s1.202 3.043 0.082 4.253l-12.713 13.729c-0.657 0.71-0.985 1.064-1.336 1.271-0.84 0.496-1.879 0.516-2.737 0.053-0.358-0.193-0.7-0.535-1.384-1.219z"></path>
</symbol>
<symbol id="icon-message-chat-circle" viewBox="0 0 32 32">
<path fill="none" stroke="#fafafa" style="stroke: var(--color1, #fafafa)" stroke-linejoin="round" stroke-linecap="round" stroke-miterlimit="4" stroke-width="2.6667" d="M8.126 14.972c-0.083-0.534-0.126-1.081-0.126-1.638 0-5.891 4.807-10.667 10.737-10.667s10.737 4.776 10.737 10.667c0 1.331-0.245 2.605-0.693 3.779-0.093 0.244-0.14 0.366-0.161 0.461s-0.029 0.161-0.031 0.257c-0.002 0.097 0.011 0.205 0.037 0.42l0.537 4.36c0.058 0.472 0.087 0.708 0.009 0.88-0.069 0.15-0.191 0.27-0.343 0.335-0.173 0.075-0.409 0.040-0.879-0.029l-4.247-0.623c-0.222-0.033-0.333-0.049-0.434-0.048-0.1 0.001-0.169 0.008-0.267 0.028s-0.225 0.068-0.477 0.163c-1.178 0.441-2.454 0.683-3.787 0.683-0.558 0-1.105-0.042-1.64-0.124M10.175 29.333c3.953 0 7.158-3.283 7.158-7.333s-3.205-7.333-7.158-7.333c-3.953 0-7.158 3.283-7.158 7.333 0 0.814 0.13 1.597 0.369 2.329 0.101 0.309 0.152 0.464 0.168 0.57 0.017 0.11 0.020 0.172 0.014 0.284-0.006 0.107-0.033 0.227-0.086 0.469l-0.815 3.682 3.993-0.545c0.218-0.030 0.327-0.045 0.422-0.044 0.1 0.001 0.153 0.006 0.252 0.026 0.093 0.019 0.232 0.067 0.51 0.165 0.731 0.258 1.516 0.398 2.332 0.398z"></path>
</symbol>
<symbol id="icon-sand-clock" viewBox="0 0 32 32">
<path fill="none" stroke="#fafafa" style="stroke: var(--color1, #fafafa)" stroke-linejoin="round" stroke-linecap="round" stroke-miterlimit="4" stroke-width="2.6667" d="M24.217 2.667h-16.434c-0.617 0-1.117 0.5-1.117 1.117 0 3.554 1.412 6.962 3.925 9.475l1.626 1.626c0.161 0.161 0.242 0.242 0.3 0.32 0.352 0.473 0.352 1.121 0 1.594-0.058 0.077-0.139 0.158-0.3 0.32l-1.626 1.626c-2.513 2.513-3.925 5.921-3.925 9.475 0 0.617 0.5 1.117 1.117 1.117h16.434c0.617 0 1.117-0.5 1.117-1.117 0-3.554-1.412-6.962-3.925-9.475l-1.626-1.626c-0.161-0.161-0.242-0.242-0.3-0.32-0.353-0.473-0.353-1.121 0-1.594 0.058-0.077 0.139-0.158 0.3-0.32l1.626-1.626c2.513-2.513 3.925-5.921 3.925-9.475 0-0.617-0.5-1.117-1.117-1.117z"></path>
</symbol>
<symbol id="icon-user-01" viewBox="0 0 32 32">
<path fill="none" stroke="#fafafa" style="stroke: var(--color1, #fafafa)" stroke-linejoin="round" stroke-linecap="round" stroke-miterlimit="4" stroke-width="2.6667" d="M26.667 28c0-1.861 0-2.791-0.23-3.548-0.517-1.705-1.851-3.039-3.556-3.556-0.757-0.23-1.687-0.23-3.548-0.23h-6.667c-1.861 0-2.791 0-3.548 0.23-1.705 0.517-3.038 1.851-3.556 3.556-0.23 0.757-0.23 1.687-0.23 3.548"></path>
<path fill="none" stroke="#fafafa" style="stroke: var(--color1, #fafafa)" stroke-linejoin="round" stroke-linecap="round" stroke-miterlimit="4" stroke-width="2.6667" d="M16 16c3.314 0 6-2.686 6-6s-2.686-6-6-6c-3.314 0-6 2.686-6 6s2.686 6 6 6z"></path>
</symbol>
<symbol id="icon-x" viewBox="0 0 32 32">
<path fill="none" stroke="#fafafa" style="stroke: var(--color1, #fafafa)" stroke-linejoin="round" stroke-linecap="round" stroke-miterlimit="4" stroke-width="2.6667" d="M24 8l-16 16"></path>
<path fill="none" stroke="#fafafa" style="stroke: var(--color1, #fafafa)" stroke-linejoin="round" stroke-linecap="round" stroke-miterlimit="4" stroke-width="2.6667" d="M8 8l16 16"></path>
</symbol>
<symbol id="icon-FB" viewBox="0 0 48 32">
<path fill="#fafafa" d="M2.5 32V.958h19.271v4.021H7.188v10.062h13.187v4H7.187v12.958H2.499zm22.355 0V.958h11.396c2.194 0 4.014.361 5.458 1.083s2.521 1.701 3.229 2.938c.722 1.222 1.083 2.597 1.083 4.125 0 1.292-.243 2.382-.729 3.271-.472.889-1.104 1.597-1.896 2.125s-1.667.917-2.625 1.167v.292c1.042.056 2.055.389 3.042 1s1.799 1.479 2.438 2.604c.653 1.111.979 2.472.979 4.083 0 1.583-.375 3.007-1.125 4.271-.736 1.25-1.875 2.243-3.417 2.979S39.167 32 36.751 32H24.855zm4.687-4h6.75c2.25 0 3.861-.438 4.833-1.313s1.458-1.965 1.458-3.271c0-.986-.25-1.882-.75-2.688-.486-.819-1.187-1.472-2.104-1.958s-2-.729-3.25-.729h-6.938v9.958zm0-13.604h6.292c1.042 0 1.986-.201 2.833-.604s1.514-.972 2-1.708c.5-.75.75-1.618.75-2.604 0-1.278-.451-2.347-1.354-3.208-.889-.875-2.257-1.312-4.104-1.312h-6.417v9.438z" style="fill:var(--color1, #fafafa)"/>
</symbol>
<symbol id="icon-GH" viewBox="0 0 54 32">
<path fill="#fafafa" d="M14.423 29.923c-2.59 0-4.865-.596-6.827-1.788-1.949-1.192-3.474-2.885-4.577-5.077-1.09-2.205-1.635-4.814-1.635-7.827 0-3.051.551-5.673 1.654-7.865 1.115-2.205 2.641-3.897 4.577-5.077C9.551 1.097 11.756.501 14.23.501c1.538 0 2.974.231 4.308.692a11.238 11.238 0 0 1 3.577 1.942 10.956 10.956 0 0 1 2.596 3c.692 1.141 1.16 2.41 1.404 3.808h-4.423a8.737 8.737 0 0 0-1.077-2.288A6.968 6.968 0 0 0 19 5.924a6.599 6.599 0 0 0-2.135-1.096c-.782-.256-1.654-.385-2.615-.385-1.615 0-3.07.417-4.365 1.25-1.295.821-2.321 2.032-3.077 3.635s-1.135 3.564-1.135 5.885c0 2.321.378 4.282 1.135 5.885s1.795 2.821 3.115 3.654c1.321.82 2.82 1.231 4.5 1.231 1.551 0 2.904-.314 4.058-.942 1.154-.641 2.051-1.538 2.692-2.692s.962-2.519.962-4.096l1.135.212h-8.192v-3.577h11.269v3.269c0 2.41-.513 4.494-1.538 6.25a10.454 10.454 0 0 1-4.231 4.077c-1.795.961-3.846 1.442-6.154 1.442zm14.943-.385V.884h4.327v12.462h14.269V.884h4.327v28.654h-4.327V17.057H33.693v12.481h-4.327z" style="fill:var(--color1, #fafafa)"/>
</symbol>
<symbol id="icon-IG" viewBox="0 0 37 32">
<path fill="#fafafa" d="M6.635.885v28.654H2.308V.885h4.327zm15.962 29.038c-2.59 0-4.865-.596-6.827-1.788-1.949-1.192-3.474-2.885-4.577-5.077-1.09-2.205-1.635-4.814-1.635-7.827 0-3.051.551-5.673 1.654-7.865 1.115-2.205 2.641-3.897 4.577-5.077C17.725 1.097 19.93.501 22.404.501c1.538 0 2.974.231 4.308.692a11.238 11.238 0 0 1 3.577 1.942 10.956 10.956 0 0 1 2.596 3c.692 1.141 1.16 2.41 1.404 3.808h-4.423a8.737 8.737 0 0 0-1.077-2.288 6.968 6.968 0 0 0-1.615-1.731 6.599 6.599 0 0 0-2.135-1.096c-.782-.256-1.654-.385-2.615-.385-1.615 0-3.071.417-4.365 1.25-1.295.821-2.321 2.032-3.077 3.635s-1.135 3.564-1.135 5.885c0 2.321.378 4.282 1.135 5.885s1.795 2.821 3.115 3.654c1.32.82 2.82 1.231 4.5 1.231 1.551 0 2.904-.314 4.058-.942 1.154-.641 2.051-1.538 2.692-2.692s.961-2.519.961-4.096l1.135.212h-8.192v-3.577H34.52v3.269c0 2.41-.513 4.494-1.538 6.25a10.454 10.454 0 0 1-4.231 4.077c-1.795.961-3.846 1.442-6.154 1.442z" style="fill:var(--color1, #fafafa)"/>
</symbol>
<symbol id="icon-YT" viewBox="0 0 56 32">
<path fill="#fafafa" d="M1.438.958h5.313l8.125 14.125h.333L23.292.958h5.354L17.375 19.812V32h-4.688V19.812L1.437.958zm28.084 4.021V.958h24.042v4.021h-9.667V32H39.23V4.979h-9.709z" style="fill:var(--color1, #fafafa)"/>
</symbol>
</defs>
</svg>
