<svg xmlns="http://www.w3.org/2000/svg" aria-hidden="true" style="position:absolute;width:0;height:0;overflow:hidden">
  <defs>
    <symbol id="icon-FB" viewBox="0 0 48 32">
      <path d="M2.5 32V.958h19.271v4.021H7.188v10.062h13.187v4H7.187v12.958H2.499zm22.355 0V.958h11.396c2.194 0 4.014.361 5.458 1.083s2.521 1.701 3.229 2.938c.722 1.222 1.083 2.597 1.083 4.125 0 1.292-.243 2.382-.729 3.271-.472.889-1.104 1.597-1.896 2.125s-1.667.917-2.625 1.167v.292c1.042.056 2.055.389 3.042 1s1.799 1.479 2.438 2.604c.653 1.111.979 2.472.979 4.083 0 1.583-.375 3.007-1.125 4.271-.736 1.25-1.875 2.243-3.417 2.979S39.167 32 36.751 32H24.855zm4.687-4h6.75c2.25 0 3.861-.438 4.833-1.313s1.458-1.965 1.458-3.271c0-.986-.25-1.882-.75-2.688-.486-.819-1.187-1.472-2.104-1.958s-2-.729-3.25-.729h-6.938v9.958zm0-13.604h6.292c1.042 0 1.986-.201 2.833-.604s1.514-.972 2-1.708c.5-.75.75-1.618.75-2.604 0-1.278-.451-2.347-1.354-3.208-.889-.875-2.257-1.312-4.104-1.312h-6.417v9.438z" style="fill:var(--color1, #fafafa)"/>
    </symbol>
    <symbol id="icon-GH" viewBox="0 0 54 32">
      <path fill="#fafafa" d="M14.423 29.923c-2.59 0-4.865-.596-6.827-1.788-1.949-1.192-3.474-2.885-4.577-5.077-1.09-2.205-1.635-4.814-1.635-7.827 0-3.051.551-5.673 1.654-7.865 1.115-2.205 2.641-3.897 4.577-5.077C9.551 1.097 11.756.501 14.23.501c1.538 0 2.974.231 4.308.692a11.238 11.238 0 0 1 3.577 1.942 10.956 10.956 0 0 1 2.596 3c.692 1.141 1.16 2.41 1.404 3.808h-4.423a8.737 8.737 0 0 0-1.077-2.288A6.968 6.968 0 0 0 19 5.924a6.599 6.599 0 0 0-2.135-1.096c-.782-.256-1.654-.385-2.615-.385-1.615 0-3.07.417-4.365 1.25-1.295.821-2.321 2.032-3.077 3.635s-1.135 3.564-1.135 5.885c0 2.321.378 4.282 1.135 5.885s1.795 2.821 3.115 3.654c1.321.82 2.82 1.231 4.5 1.231 1.551 0 2.904-.314 4.058-.942 1.154-.641 2.051-1.538 2.692-2.692s.962-2.519.962-4.096l1.135.212h-8.192v-3.577h11.269v3.269c0 2.41-.513 4.494-1.538 6.25a10.454 10.454 0 0 1-4.231 4.077c-1.795.961-3.846 1.442-6.154 1.442zm14.943-.385V.884h4.327v12.462h14.269V.884h4.327v28.654h-4.327V17.057H33.693v12.481h-4.327z" style="fill:var(--color1, #fafafa)"/>
    </symbol>
    <symbol id="icon-IG" viewBox="0 0 37 32">
      <path fill="#fafafa" d="M6.635.885v28.654H2.308V.885h4.327zm15.962 29.038c-2.59 0-4.865-.596-6.827-1.788-1.949-1.192-3.474-2.885-4.577-5.077-1.09-2.205-1.635-4.814-1.635-7.827 0-3.051.551-5.673 1.654-7.865 1.115-2.205 2.641-3.897 4.577-5.077C17.725 1.097 19.93.501 22.404.501c1.538 0 2.974.231 4.308.692a11.238 11.238 0 0 1 3.577 1.942 10.956 10.956 0 0 1 2.596 3c.692 1.141 1.16 2.41 1.404 3.808h-4.423a8.737 8.737 0 0 0-1.077-2.288 6.968 6.968 0 0 0-1.615-1.731 6.599 6.599 0 0 0-2.135-1.096c-.782-.256-1.654-.385-2.615-.385-1.615 0-3.071.417-4.365 1.25-1.295.821-2.321 2.032-3.077 3.635s-1.135 3.564-1.135 5.885c0 2.321.378 4.282 1.135 5.885s1.795 2.821 3.115 3.654c1.32.82 2.82 1.231 4.5 1.231 1.551 0 2.904-.314 4.058-.942 1.154-.641 2.051-1.538 2.692-2.692s.961-2.519.961-4.096l1.135.212h-8.192v-3.577H34.52v3.269c0 2.41-.513 4.494-1.538 6.25a10.454 10.454 0 0 1-4.231 4.077c-1.795.961-3.846 1.442-6.154 1.442z" style="fill:var(--color1, #fafafa)"/>
    </symbol>
    <symbol id="icon-YT" viewBox="0 0 56 32">
      <path fill="#fafafa" d="M1.438.958h5.313l8.125 14.125h.333L23.292.958h5.354L17.375 19.812V32h-4.688V19.812L1.437.958zm28.084 4.021V.958h24.042v4.021h-9.667V32H39.23V4.979h-9.709z" style="fill:var(--color1, #fafafa)"/>
    </symbol>
  </defs>
</svg>
