<svg aria-hidden="true" style="position: absolute; width: 0; height: 0; overflow: hidden;" version="1.1" xmlns="http://www.w3.org/2000/svg" xmlns:xlink="http://www.w3.org/1999/xlink">
<defs>
<symbol id="icon-J" viewBox="0 0 38 32">
<path fill="#fafafa" style="fill: var(--color1, #fafafa)" d="M9.297 30.391c-1.654 0-3.138-0.293-4.453-0.879-1.315-0.599-2.357-1.471-3.125-2.617s-1.152-2.539-1.152-4.18v-0.566h4.355v0.566c0 0.794 0.182 1.491 0.547 2.090 0.378 0.599 0.892 1.061 1.543 1.387 0.664 0.313 1.426 0.469 2.285 0.469 0.924 0 1.712-0.195 2.363-0.586s1.146-0.964 1.484-1.719c0.339-0.768 0.508-1.706 0.508-2.812v-20.645h4.355v20.645c0 1.862-0.358 3.457-1.074 4.785-0.703 1.315-1.706 2.324-3.008 3.027-1.302 0.69-2.845 1.035-4.629 1.035zM27.598 17.266l0.273-5.996-5.039 3.262-1.562-2.695 5.351-2.734-5.351-2.734 1.562-2.734 5.039 3.262-0.273-5.996h3.086l-0.273 5.996 5.039-3.262 1.563 2.734-5.352 2.734 5.352 2.734-1.563 2.695-5.039-3.262 0.273 5.996h-3.086z"></path>
</symbol>
</defs>
</svg>
